<svg width="32" height="33" viewBox="0 0 32 33" fill="none" xmlns="http://www.w3.org/2000/svg">
<path fill-rule="evenodd" clip-rule="evenodd" d="M9.59913 4.59351C6.26896 4.59351 3.55469 7.30778 3.55469 10.6379V23.438C3.55469 26.7681 6.26896 29.4824 9.59913 29.4824H22.3991C25.7293 29.4824 28.4436 26.7681 28.4436 23.438V10.6379C28.4436 7.30778 25.7293 4.59351 22.3991 4.59351H9.59913ZM9.59913 6.72684H22.3991C24.5843 6.72684 26.3102 8.45274 26.3102 10.6379V23.438C26.3102 25.6232 24.5843 27.3491 22.3991 27.3491H9.59913C7.41392 27.3491 5.68802 25.6232 5.68802 23.438V10.6379C5.68802 8.45274 7.41392 6.72684 9.59913 6.72684ZM21.688 10.2824C21.688 9.49689 22.3248 8.86017 23.1102 8.86017C23.8957 8.86017 24.5325 9.49689 24.5325 10.2824C24.5325 11.0678 23.8957 11.7046 23.1102 11.7046C22.3248 11.7046 21.688 11.0678 21.688 10.2824ZM15.9991 10.9935C12.6735 10.9935 9.95469 13.7123 9.95469 17.038C9.95469 20.3636 12.6735 23.0824 15.9991 23.0824C19.3247 23.0824 22.0436 20.3636 22.0436 17.038C22.0436 13.7123 19.3247 10.9935 15.9991 10.9935ZM19.9102 17.038C19.9102 14.8653 18.1718 13.1268 15.9991 13.1268C13.8264 13.1268 12.088 14.8653 12.088 17.038C12.088 19.2106 13.8264 20.9491 15.9991 20.9491C18.1718 20.9491 19.9102 19.2106 19.9102 17.038Z" fill="#F5F5F5"/>
</svg>
