<svg width="32" height="33" viewBox="0 0 32 33" fill="none" xmlns="http://www.w3.org/2000/svg">
<path fill-rule="evenodd" clip-rule="evenodd" d="M26.5603 4.46484H5.39184C4.3782 4.46484 3.55664 5.26135 3.55664 6.24443V27.5225C3.55664 28.5056 4.37849 29.3028 5.39184 29.3028H26.5603C27.5737 29.3028 28.3943 28.5051 28.3943 27.5225V6.24443C28.3943 5.26163 27.5737 4.46484 26.5603 4.46484ZM11.0868 25.2555H7.33397V14.0415H11.0868V25.2555ZM9.18465 12.51H9.20988C10.5174 12.51 11.3316 11.6495 11.3316 10.5718C11.3066 9.47235 10.5171 8.63525 9.23356 8.63525C7.95013 8.63525 7.11038 9.47258 7.11038 10.5718C7.11038 11.6493 7.92617 12.51 9.18465 12.51ZM24.6145 25.2559H20.8629V19.256C20.8629 17.7484 20.3193 16.7197 18.9626 16.7197C17.9247 16.7197 17.3086 17.4137 17.0381 18.0837C16.9379 18.323 16.913 18.6577 16.913 18.992V25.2556H13.1621C13.1621 25.2556 13.2112 15.0934 13.1621 14.0417H16.9136V15.6315C17.4116 14.8676 18.3015 13.7778 20.2938 13.7778C22.763 13.7778 24.6145 15.3797 24.6145 18.8257V25.2559ZM16.926 15.6318C16.9123 15.6508 16.8986 15.6702 16.8887 15.6864H16.926V15.6318Z" fill="#F5F5F5"/>
</svg>
