<?xml version="1.0" encoding="UTF-8" standalone="no"?>
<svg xmlns:dc="http://purl.org/dc/elements/1.1/" xmlns:cc="http://creativecommons.org/ns#" xmlns:rdf="http://www.w3.org/1999/02/22-rdf-syntax-ns#" xmlns:svg="http://www.w3.org/2000/svg" xmlns="http://www.w3.org/2000/svg" height="107.89" width="415.17999" xml:space="preserve" viewBox="0 0 415.17997 107.89" y="0px" x="0px" id="Capa_1" version="1.1"><metadata id="metadata97"><rdf:RDF><cc:Work rdf:about=""><dc:format>image/svg+xml</dc:format><dc:type rdf:resource="http://purl.org/dc/dcmitype/StillImage"/><dc:title/></cc:Work></rdf:RDF></metadata><defs id="defs95"/>
<style id="style2" type="text/css">
	.st0{fill:#0067B1;}
	.st1{fill:#76777A;}
	.st2{fill:#003DA6;}
	.st3{font-family:'MyriadPro-Regular';}
	.st4{font-size:29.7824px;}
</style>

<g transform="translate(-87.46,-470.01)" id="g86">
	<path style="fill:#003da6" id="path46" d="m 188.24,487.44 c -5.78,0 -10.5,4.72 -10.5,10.5 0,5.78 4.72,10.5 10.5,10.5 5.78,0 10.5,-4.72 10.5,-10.5 0,-5.78 -4.71,-10.5 -10.5,-10.5 z" class="st2"/>
	<path style="fill:#003da6" id="path48" d="m 87.46,525.56 c 0,28.83 23.51,52.34 52.35,52.34 18.71,0 35.18,-9.91 44.44,-24.75 v 22.55 h 17.22 v -58.07 c -20.72,0 -17.4,0 -38.11,0 v 16.96 h 10.47 c -4.01,15.03 -17.75,26.17 -34.02,26.17 -19.39,0 -35.2,-15.81 -35.2,-35.2 0,-19.22 15.55,-34.93 34.71,-35.19 v -17.15 c -28.62,0.27 -51.86,23.67 -51.86,52.34 z" class="st2"/>
	<g id="g52">
		<path style="fill:#003da6" id="path50" d="m 152.99,490.91 c 5.76,0 10.45,-4.69 10.45,-10.45 0,-5.76 -4.69,-10.45 -10.45,-10.45 -5.76,0 -10.45,4.69 -10.45,10.45 0,5.75 4.69,10.45 10.45,10.45 z" class="st2"/>
	</g>
	<path style="fill:#76777a" id="path54" d="m 225.01,488.29 h 3.5 v 35 h -3.5 z" class="st1"/>
	<path style="fill:#76777a" id="path56" d="m 232.11,497.4 h 3.33 v 4.64 c 1.33,-1.78 2.81,-3.1 4.43,-3.99 1.62,-0.88 3.38,-1.32 5.28,-1.32 1.94,0 3.65,0.49 5.15,1.47 1.5,0.98 2.61,2.31 3.32,3.97 0.71,1.66 1.07,4.26 1.07,7.78 v 13.32 h -3.33 v -12.35 c 0,-2.98 -0.12,-4.97 -0.37,-5.97 -0.39,-1.71 -1.13,-3 -2.22,-3.87 -1.09,-0.86 -2.52,-1.3 -4.28,-1.3 -2.01,0 -3.82,0.67 -5.41,2 -1.59,1.33 -2.65,2.98 -3.15,4.95 -0.32,1.28 -0.48,3.63 -0.48,7.04 v 9.49 h -3.33 V 497.4 Z" class="st1"/>
	<path style="fill:#76777a" id="path58" d="m 273.77,499.57 -2.14,2.21 c -1.78,-1.73 -3.52,-2.59 -5.22,-2.59 -1.08,0 -2.01,0.36 -2.78,1.07 -0.77,0.71 -1.16,1.55 -1.16,2.5 0,0.84 0.32,1.64 0.95,2.4 0.64,0.78 1.97,1.69 4,2.74 2.48,1.28 4.17,2.52 5.06,3.71 0.87,1.21 1.31,2.56 1.31,4.07 0,2.13 -0.75,3.93 -2.24,5.4 -1.49,1.47 -3.36,2.21 -5.6,2.21 -1.49,0 -2.92,-0.33 -4.28,-0.98 -1.36,-0.65 -2.48,-1.55 -3.37,-2.69 l 2.09,-2.38 c 1.7,1.92 3.51,2.88 5.41,2.88 1.34,0 2.47,-0.43 3.41,-1.28 0.94,-0.86 1.41,-1.86 1.41,-3.02 0,-0.95 -0.31,-1.8 -0.93,-2.55 -0.62,-0.73 -2.02,-1.65 -4.2,-2.76 -2.34,-1.21 -3.93,-2.39 -4.77,-3.57 -0.84,-1.17 -1.26,-2.51 -1.26,-4.02 0,-1.97 0.67,-3.6 2.01,-4.9 1.34,-1.3 3.04,-1.95 5.09,-1.95 2.4,0 4.8,1.17 7.21,3.5 z" class="st1"/>
	<path style="fill:#76777a" id="path60" d="m 281.93,487.79 h 3.33 v 9.61 h 5.28 v 2.88 h -5.28 v 23.01 h -3.33 v -23.01 h -4.54 v -2.88 h 4.54 z" class="st1"/>
	<path style="fill:#76777a" id="path62" d="m 295.82,486.75 c 0.76,0 1.41,0.27 1.94,0.81 0.54,0.54 0.81,1.19 0.81,1.95 0,0.75 -0.27,1.39 -0.81,1.93 -0.54,0.54 -1.18,0.81 -1.94,0.81 -0.74,0 -1.38,-0.27 -1.92,-0.81 -0.54,-0.54 -0.8,-1.18 -0.8,-1.93 0,-0.76 0.27,-1.41 0.8,-1.95 0.54,-0.54 1.18,-0.81 1.92,-0.81 z m -1.65,10.65 h 3.33 v 25.88 h -3.33 z" class="st1"/>
	<path style="fill:#76777a" id="path64" d="m 305.64,487.79 h 3.33 v 9.61 h 5.28 v 2.88 h -5.28 v 23.01 h -3.33 v -23.01 h -4.54 v -2.88 h 4.54 z" class="st1"/>
	<path style="fill:#76777a" id="path66" d="m 317.85,496.81 h 3.33 v 12.09 c 0,2.95 0.16,4.98 0.48,6.09 0.48,1.59 1.39,2.84 2.73,3.76 1.34,0.92 2.94,1.38 4.8,1.38 1.86,0 3.43,-0.45 4.73,-1.34 1.29,-0.9 2.19,-2.07 2.68,-3.53 0.33,-1 0.5,-3.12 0.5,-6.35 v -12.09 h 3.4 v 12.7 c 0,3.57 -0.42,6.26 -1.25,8.07 -0.83,1.81 -2.08,3.22 -3.76,4.25 -1.67,1.02 -3.77,1.53 -6.29,1.53 -2.52,0 -4.63,-0.51 -6.32,-1.53 -1.69,-1.02 -2.95,-2.45 -3.78,-4.28 -0.83,-1.83 -1.25,-4.59 -1.25,-8.27 z" class="st1"/>
	<path style="fill:#76777a" id="path68" d="m 348.72,487.79 h 3.33 v 9.61 h 5.28 v 2.88 h -5.28 v 23.01 h -3.33 v -23.01 h -4.54 v -2.88 h 4.54 z" class="st1"/>
	<polygon style="fill:#76777a" id="polygon70" points="308.97,544.84 304.94,544.84 304.94,551.61 308.97,551.61 308.97,576.17 316.83,576.17 316.83,551.61 321.49,551.61 321.49,544.84 316.83,544.84 316.83,533.29 308.97,533.29 " class="st1"/>
	<path style="fill:#76777a" id="path72" d="m 392.76,545.59 c -1.69,-1.04 -3.65,-1.56 -5.88,-1.56 -2.15,0 -4.14,0.48 -5.95,1.44 -1.81,0.96 -3.35,2.36 -4.6,4.2 -0.96,-1.84 -2.23,-3.24 -3.8,-4.2 -1.58,-0.96 -3.34,-1.44 -5.3,-1.44 -1.94,0 -3.73,0.37 -5.38,1.09 -1.64,0.73 -3.14,1.83 -4.48,3.31 v -3.6 h -7.86 v 31.33 h 7.86 v -13.94 c 0,-3.01 0.26,-5.22 0.79,-6.62 0.53,-1.4 1.33,-2.49 2.39,-3.27 1.07,-0.78 2.26,-1.17 3.56,-1.17 1.17,0 2.17,0.31 3,0.92 0.83,0.61 1.45,1.55 1.86,2.81 0.41,1.26 0.62,3.29 0.62,6.09 v 15.18 h 7.92 v -14.14 c 0,-2.99 0.26,-5.17 0.78,-6.52 0.52,-1.35 1.31,-2.41 2.37,-3.18 1.07,-0.77 2.27,-1.15 3.62,-1.15 1.77,0 3.09,0.63 3.97,1.89 0.88,1.26 1.33,3.66 1.33,7.21 v 15.9 h 7.92 V 557.8 c 0,-3.76 -0.37,-6.48 -1.11,-8.15 -0.72,-1.67 -1.94,-3.03 -3.63,-4.06 z" class="st1"/>
	<polygon style="fill:#76777a" id="polygon74" points="331.21,544.84 327.18,544.84 327.18,551.61 331.21,551.61 331.21,576.17 339.07,576.17 339.07,551.61 343.74,551.61 343.74,544.84 339.07,544.84 339.07,533.29 331.21,533.29 " class="st1"/>
	<path style="fill:#76777a" id="path76" d="m 499.9,547.37 c -2.17,-2.17 -4.8,-3.25 -7.91,-3.25 -1.52,0 -3,0.29 -4.44,0.88 -1.45,0.59 -3.06,1.63 -4.84,3.14 v -3.21 h -7.86 v 31.33 h 7.86 v -12.57 c 0,-3.26 0.12,-5.38 0.35,-6.36 0.44,-1.88 1.23,-3.35 2.37,-4.42 1.14,-1.06 2.5,-1.6 4.09,-1.6 1.23,0 2.26,0.32 3.09,0.96 0.83,0.64 1.42,1.58 1.75,2.8 0.33,1.23 0.5,3.71 0.5,7.45 v 13.72 h 7.78 v -20.7 c -0.01,-3.6 -0.92,-6.33 -2.74,-8.17 z" class="st1"/>
	<path style="fill:#76777a" id="path78" d="m 244.99,553.62 v 7.57 h 12.27 c -1.17,2.5 -2.72,4.33 -4.63,5.5 -1.91,1.17 -4.26,1.76 -7.05,1.76 -4.28,0 -7.89,-1.42 -10.81,-4.26 -2.92,-2.84 -4.38,-6.31 -4.38,-10.4 0,-3.95 1.41,-7.31 4.22,-10.08 2.82,-2.76 6.31,-4.15 10.48,-4.15 4.79,0 8.97,1.9 12.57,5.7 l 5.68,-5.62 c -2.59,-2.8 -5.24,-4.78 -7.95,-5.93 -3.21,-1.36 -6.65,-2.04 -10.34,-2.04 -7.04,0 -12.76,2.47 -17.16,7.4 -3.71,4.15 -5.56,9.02 -5.56,14.63 0,4.09 1,7.9 3.01,11.43 2.01,3.53 4.73,6.25 8.18,8.16 3.45,1.91 7.37,2.87 11.76,2.87 4.11,0 7.69,-0.87 10.74,-2.62 3.05,-1.75 5.54,-4.28 7.46,-7.6 1.92,-3.32 2.88,-6.83 2.88,-10.54 l -0.06,-1.79 h -21.31 z" class="st1"/>
	<path style="fill:#76777a" id="path80" d="m 427.74,548.3 c -1.4,-1.42 -2.93,-2.49 -4.57,-3.2 -1.65,-0.71 -3.41,-1.07 -5.29,-1.07 -4.09,0 -7.55,1.55 -10.41,4.64 -2.86,3.09 -4.28,7.05 -4.28,11.89 0,4.67 1.48,8.57 4.43,11.71 2.95,3.14 6.45,4.71 10.5,4.71 1.8,0 3.47,-0.32 5.02,-0.96 1.54,-0.64 3.08,-1.69 4.62,-3.15 v 3.31 h 7.86 v -31.33 h -7.86 v 3.45 z m -2.09,18.9 c -1.63,1.72 -3.67,2.58 -6.14,2.58 -2.39,0 -4.4,-0.87 -6.04,-2.62 -1.64,-1.75 -2.45,-3.97 -2.45,-6.68 0,-2.69 0.8,-4.89 2.41,-6.61 1.61,-1.72 3.63,-2.58 6.05,-2.58 2.49,0 4.54,0.84 6.17,2.53 1.63,1.69 2.44,3.9 2.44,6.62 0,2.79 -0.82,5.04 -2.44,6.76 z" class="st1"/>
	<path style="fill:#76777a" id="path82" d="m 291.63,559.38 c 0,2.96 -0.16,4.89 -0.49,5.79 -0.44,1.21 -1.12,2.13 -2.04,2.75 -0.91,0.62 -2.03,0.94 -3.33,0.94 -1.31,0 -2.41,-0.32 -3.3,-0.95 -0.89,-0.63 -1.54,-1.52 -1.95,-2.66 -0.4,-1.14 -0.6,-3.18 -0.6,-6.12 v -15.09 h -7.95 v 13.05 c 0,5.01 0.31,8.47 0.92,10.37 0.86,2.75 2.36,4.89 4.48,6.42 2.12,1.54 4.9,2.3 8.34,2.3 3.17,0 5.78,-0.66 7.83,-1.97 2.05,-1.31 3.61,-3.2 4.66,-5.66 0.86,-2.02 1.3,-5.76 1.3,-11.23 v -13.28 h -7.86 v 15.34 z" class="st1"/>
	<path style="fill:#76777a" id="path84" d="m 458.47,544.03 c -1.51,0 -3,0.29 -4.44,0.88 -1.45,0.59 -3.06,1.63 -4.84,3.14 v -3.21 h -7.86 v 31.33 h 7.86 V 563.6 c 0,-3.26 0.12,-5.38 0.34,-6.36 0.44,-1.88 1.23,-3.35 2.37,-4.42 1.14,-1.06 2.5,-1.6 4.09,-1.6 1.23,0 2.25,0.32 3.09,0.96 0.83,0.64 1.42,1.58 1.75,2.8 0.33,1.23 0.5,3.71 0.5,7.45 v 13.72 h 7.78 v -20.7 c 0,-3.61 -0.91,-6.34 -2.73,-8.18 -2.17,-2.15 -4.8,-3.24 -7.91,-3.24 z" class="st1"/>
</g>


</svg>