<?xml version="1.0" encoding="UTF-8"?>
<svg width="416px" height="108px" viewBox="0 0 416 108" version="1.1" xmlns="http://www.w3.org/2000/svg" xmlns:xlink="http://www.w3.org/1999/xlink">
    <title>logo</title>
    <g id="Page-1" stroke="none" stroke-width="1" fill="none" fill-rule="evenodd">
        <g id="logo" transform="translate(0.000000, 0.000000)" fill="#FFFFFF" fill-rule="nonzero">
            <path d="M100.78,17.43 C95,17.43 90.28,22.15 90.28,27.93 C90.28,33.71 95,38.43 100.78,38.43 C106.56,38.43 111.28,33.71 111.28,27.93 C111.28,22.15 106.57,17.43 100.78,17.43 Z" id="path46"></path>
            <path d="M1.42108547e-14,55.55 C1.42108547e-14,84.38 23.51,107.89 52.35,107.89 C71.06,107.89 87.53,97.98 96.79,83.14 L96.79,105.69 L114.01,105.69 L114.01,47.62 C93.29,47.62 96.61,47.62 75.9,47.62 L75.9,64.58 L86.37,64.58 C82.36,79.61 68.62,90.75 52.35,90.75 C32.96,90.75 17.15,74.94 17.15,55.55 C17.15,36.33 32.7,20.62 51.86,20.36 L51.86,3.21 C23.24,3.48 1.42108547e-14,26.88 1.42108547e-14,55.55 L1.42108547e-14,55.55 Z" id="path48"></path>
            <g id="g52" transform="translate(55.080000, 0.000000)">
                <path d="M10.45,20.9 C16.21,20.9 20.9,16.21 20.9,10.45 C20.9,4.69 16.21,0 10.45,0 C4.69,0 0,4.69 0,10.45 C0,16.2 4.69,20.9 10.45,20.9 Z" id="path50"></path>
            </g>
            <polygon id="path54" points="137.55 18.28 141.05 18.28 141.05 53.28 137.55 53.28"></polygon>
            <path d="M144.65,27.39 L147.98,27.39 L147.98,32.03 C149.31,30.25 150.79,28.93 152.41,28.04 C154.03,27.16 155.79,26.72 157.69,26.72 C159.63,26.72 161.34,27.21 162.84,28.19 C164.34,29.17 165.45,30.5 166.16,32.16 C166.87,33.82 167.23,36.42 167.23,39.94 L167.23,53.26 L163.9,53.26 L163.9,40.91 C163.9,37.93 163.78,35.94 163.53,34.94 C163.14,33.23 162.4,31.94 161.31,31.07 C160.22,30.21 158.79,29.77 157.03,29.77 C155.02,29.77 153.21,30.44 151.62,31.77 C150.03,33.1 148.97,34.75 148.47,36.72 C148.15,38 147.99,40.35 147.99,43.76 L147.99,53.25 L144.66,53.25 L144.66,27.39 L144.65,27.39 Z" id="path56"></path>
            <path d="M186.31,29.56 L184.17,31.77 C182.39,30.04 180.65,29.18 178.95,29.18 C177.87,29.18 176.94,29.54 176.17,30.25 C175.4,30.96 175.01,31.8 175.01,32.75 C175.01,33.59 175.33,34.39 175.96,35.15 C176.6,35.93 177.93,36.84 179.96,37.89 C182.44,39.17 184.13,40.41 185.02,41.6 C185.89,42.81 186.33,44.16 186.33,45.67 C186.33,47.8 185.58,49.6 184.09,51.07 C182.6,52.54 180.73,53.28 178.49,53.28 C177,53.28 175.57,52.95 174.21,52.3 C172.85,51.65 171.73,50.75 170.84,49.61 L172.93,47.23 C174.63,49.15 176.44,50.11 178.34,50.11 C179.68,50.11 180.81,49.68 181.75,48.83 C182.69,47.97 183.16,46.97 183.16,45.81 C183.16,44.86 182.85,44.01 182.23,43.26 C181.61,42.53 180.21,41.61 178.03,40.5 C175.69,39.29 174.1,38.11 173.26,36.93 C172.42,35.76 172,34.42 172,32.91 C172,30.94 172.67,29.31 174.01,28.01 C175.35,26.71 177.05,26.06 179.1,26.06 C181.5,26.06 183.9,27.23 186.31,29.56 L186.31,29.56 Z" id="path58"></path>
            <polygon id="path60" points="194.47 17.78 197.8 17.78 197.8 27.39 203.08 27.39 203.08 30.27 197.8 30.27 197.8 53.28 194.47 53.28 194.47 30.27 189.93 30.27 189.93 27.39 194.47 27.39"></polygon>
            <path d="M208.36,16.74 C209.12,16.74 209.77,17.01 210.3,17.55 C210.84,18.09 211.11,18.74 211.11,19.5 C211.11,20.25 210.84,20.89 210.3,21.43 C209.76,21.97 209.12,22.24 208.36,22.24 C207.62,22.24 206.98,21.97 206.44,21.43 C205.9,20.89 205.64,20.25 205.64,19.5 C205.64,18.74 205.91,18.09 206.44,17.55 C206.98,17.01 207.62,16.74 208.36,16.74 Z M206.71,27.39 L210.04,27.39 L210.04,53.27 L206.71,53.27 L206.71,27.39 Z" id="path62"></path>
            <polygon id="path64" points="218.18 17.78 221.51 17.78 221.51 27.39 226.79 27.39 226.79 30.27 221.51 30.27 221.51 53.28 218.18 53.28 218.18 30.27 213.64 30.27 213.64 27.39 218.18 27.39"></polygon>
            <path d="M230.39,26.8 L233.72,26.8 L233.72,38.89 C233.72,41.84 233.88,43.87 234.2,44.98 C234.68,46.57 235.59,47.82 236.93,48.74 C238.27,49.66 239.87,50.12 241.73,50.12 C243.59,50.12 245.16,49.67 246.46,48.78 C247.75,47.88 248.65,46.71 249.14,45.25 C249.47,44.25 249.64,42.13 249.64,38.9 L249.64,26.81 L253.04,26.81 L253.04,39.51 C253.04,43.08 252.62,45.77 251.79,47.58 C250.96,49.39 249.71,50.8 248.03,51.83 C246.36,52.85 244.26,53.36 241.74,53.36 C239.22,53.36 237.11,52.85 235.42,51.83 C233.73,50.81 232.47,49.38 231.64,47.55 C230.81,45.72 230.39,42.96 230.39,39.28 L230.39,26.8 Z" id="path66"></path>
            <polygon id="path68" points="261.26 17.78 264.59 17.78 264.59 27.39 269.87 27.39 269.87 30.27 264.59 30.27 264.59 53.28 261.26 53.28 261.26 30.27 256.72 30.27 256.72 27.39 261.26 27.39"></polygon>
            <polygon id="polygon70" points="221.51 74.83 217.48 74.83 217.48 81.6 221.51 81.6 221.51 106.16 229.37 106.16 229.37 81.6 234.03 81.6 234.03 74.83 229.37 74.83 229.37 63.28 221.51 63.28"></polygon>
            <path d="M305.3,75.58 C303.61,74.54 301.65,74.02 299.42,74.02 C297.27,74.02 295.28,74.5 293.47,75.46 C291.66,76.42 290.12,77.82 288.87,79.66 C287.91,77.82 286.64,76.42 285.07,75.46 C283.49,74.5 281.73,74.02 279.77,74.02 C277.83,74.02 276.04,74.39 274.39,75.11 C272.75,75.84 271.25,76.94 269.91,78.42 L269.91,74.82 L262.05,74.82 L262.05,106.15 L269.91,106.15 L269.91,92.21 C269.91,89.2 270.17,86.99 270.7,85.59 C271.23,84.19 272.03,83.1 273.09,82.32 C274.16,81.54 275.35,81.15 276.65,81.15 C277.82,81.15 278.82,81.46 279.65,82.07 C280.48,82.68 281.1,83.62 281.51,84.88 C281.92,86.14 282.13,88.17 282.13,90.97 L282.13,106.15 L290.05,106.15 L290.05,92.01 C290.05,89.02 290.31,86.84 290.83,85.49 C291.35,84.14 292.14,83.08 293.2,82.31 C294.27,81.54 295.47,81.16 296.82,81.16 C298.59,81.16 299.91,81.79 300.79,83.05 C301.67,84.31 302.12,86.71 302.12,90.26 L302.12,106.16 L310.04,106.16 L310.04,87.79 C310.04,84.03 309.67,81.31 308.93,79.64 C308.21,77.97 306.99,76.61 305.3,75.58 Z" id="path72"></path>
            <polygon id="polygon74" points="243.75 74.83 239.72 74.83 239.72 81.6 243.75 81.6 243.75 106.16 251.61 106.16 251.61 81.6 256.28 81.6 256.28 74.83 251.61 74.83 251.61 63.28 243.75 63.28"></polygon>
            <path d="M412.44,77.36 C410.27,75.19 407.64,74.11 404.53,74.11 C403.01,74.11 401.53,74.4 400.09,74.99 C398.64,75.58 397.03,76.62 395.25,78.13 L395.25,74.92 L387.39,74.92 L387.39,106.25 L395.25,106.25 L395.25,93.68 C395.25,90.42 395.37,88.3 395.6,87.32 C396.04,85.44 396.83,83.97 397.97,82.9 C399.11,81.84 400.47,81.3 402.06,81.3 C403.29,81.3 404.32,81.62 405.15,82.26 C405.98,82.9 406.57,83.84 406.9,85.06 C407.23,86.29 407.4,88.77 407.4,92.51 L407.4,106.23 L415.18,106.23 L415.18,85.53 C415.17,81.93 414.26,79.2 412.44,77.36 L412.44,77.36 Z" id="path76"></path>
            <path d="M157.53,83.61 L157.53,91.18 L169.8,91.18 C168.63,93.68 167.08,95.51 165.17,96.68 C163.26,97.85 160.91,98.44 158.12,98.44 C153.84,98.44 150.23,97.02 147.31,94.18 C144.39,91.34 142.93,87.87 142.93,83.78 C142.93,79.83 144.34,76.47 147.15,73.7 C149.97,70.94 153.46,69.55 157.63,69.55 C162.42,69.55 166.6,71.45 170.2,75.25 L175.88,69.63 C173.29,66.83 170.64,64.85 167.93,63.7 C164.72,62.34 161.28,61.66 157.59,61.66 C150.55,61.66 144.83,64.13 140.43,69.06 C136.72,73.21 134.87,78.08 134.87,83.69 C134.87,87.78 135.87,91.59 137.88,95.12 C139.89,98.65 142.61,101.37 146.06,103.28 C149.51,105.19 153.43,106.15 157.82,106.15 C161.93,106.15 165.51,105.28 168.56,103.53 C171.61,101.78 174.1,99.25 176.02,95.93 C177.94,92.61 178.9,89.1 178.9,85.39 L178.84,83.6 L157.53,83.6 L157.53,83.61 Z" id="path78"></path>
            <path d="M340.28,78.29 C338.88,76.87 337.35,75.8 335.71,75.09 C334.06,74.38 332.3,74.02 330.42,74.02 C326.33,74.02 322.87,75.57 320.01,78.66 C317.15,81.75 315.73,85.71 315.73,90.55 C315.73,95.22 317.21,99.12 320.16,102.26 C323.11,105.4 326.61,106.97 330.66,106.97 C332.46,106.97 334.13,106.65 335.68,106.01 C337.22,105.37 338.76,104.32 340.3,102.86 L340.3,106.17 L348.16,106.17 L348.16,74.84 L340.3,74.84 L340.3,78.29 L340.28,78.29 Z M338.19,97.19 C336.56,98.91 334.52,99.77 332.05,99.77 C329.66,99.77 327.65,98.9 326.01,97.15 C324.37,95.4 323.56,93.18 323.56,90.47 C323.56,87.78 324.36,85.58 325.97,83.86 C327.58,82.14 329.6,81.28 332.02,81.28 C334.51,81.28 336.56,82.12 338.19,83.81 C339.82,85.5 340.63,87.71 340.63,90.43 C340.63,93.22 339.81,95.47 338.19,97.19 L338.19,97.19 Z" id="path80"></path>
            <path d="M204.17,89.37 C204.17,92.33 204.01,94.26 203.68,95.16 C203.24,96.37 202.56,97.29 201.64,97.91 C200.73,98.53 199.61,98.85 198.31,98.85 C197,98.85 195.9,98.53 195.01,97.9 C194.12,97.27 193.47,96.38 193.06,95.24 C192.66,94.1 192.46,92.06 192.46,89.12 L192.46,74.03 L184.51,74.03 L184.51,87.08 C184.51,92.09 184.82,95.55 185.43,97.45 C186.29,100.2 187.79,102.34 189.91,103.87 C192.03,105.41 194.81,106.17 198.25,106.17 C201.42,106.17 204.03,105.51 206.08,104.2 C208.13,102.89 209.69,101 210.74,98.54 C211.6,96.52 212.04,92.78 212.04,87.31 L212.04,74.03 L204.18,74.03 L204.18,89.37 L204.17,89.37 Z" id="path82"></path>
            <path d="M371.01,74.02 C369.5,74.02 368.01,74.31 366.57,74.9 C365.12,75.49 363.51,76.53 361.73,78.04 L361.73,74.83 L353.87,74.83 L353.87,106.16 L361.73,106.16 L361.73,93.59 C361.73,90.33 361.85,88.21 362.07,87.23 C362.51,85.35 363.3,83.88 364.44,82.81 C365.58,81.75 366.94,81.21 368.53,81.21 C369.76,81.21 370.78,81.53 371.62,82.17 C372.45,82.81 373.04,83.75 373.37,84.97 C373.7,86.2 373.87,88.68 373.87,92.42 L373.87,106.14 L381.65,106.14 L381.65,85.44 C381.65,81.83 380.74,79.1 378.92,77.26 C376.75,75.11 374.12,74.02 371.01,74.02 L371.01,74.02 Z" id="path84"></path>
        </g>
    </g>
</svg>