<?xml version="1.0" encoding="UTF-8" standalone="no"?>
<svg xmlns:dc="http://purl.org/dc/elements/1.1/" xmlns:cc="http://creativecommons.org/ns#" xmlns:rdf="http://www.w3.org/1999/02/22-rdf-syntax-ns#" xmlns:svg="http://www.w3.org/2000/svg" xmlns="http://www.w3.org/2000/svg" height="50" width="200" xml:space="preserve" viewBox="0 0 415.17997 107.89" y="0px" x="0px" id="Capa_1" version="1.1"><metadata id="metadata97"><rdf:RDF><cc:Work rdf:about=""><dc:format>image/svg+xml</dc:format><dc:type rdf:resource="http://purl.org/dc/dcmitype/StillImage"/><dc:title/></cc:Work></rdf:RDF></metadata><defs id="defs95"/>
<style id="style2" type="text/css">
	.st0{fill:#0067B1;}
	.st1{fill:#76777A;}
	.st2{fill:#003DA6;}
	.st3{font-family:'MyriadPro-Regular';}
	.st4{font-size:29.7824px;}
</style>

<g transform="translate(-87.46,-470.01)" id="g86">
	<path style="fill:#003da6" id="path46" d="m 188.24,487.44 c -5.78,0 -10.5,4.72 -10.5,10.5 0,5.78 4.72,10.5 10.5,10.5 5.78,0 10.5,-4.72 10.5,-10.5 0,-5.78 -4.71,-10.5 -10.5,-10.5 z" class="st2"/>
	<path style="fill:#003da6" id="path48" d="m 87.46,525.56 c 0,28.83 23.51,52.34 52.35,52.34 18.71,0 35.18,-9.91 44.44,-24.75 v 22.55 h 17.22 v -58.07 c -20.72,0 -17.4,0 -38.11,0 v 16.96 h 10.47 c -4.01,15.03 -17.75,26.17 -34.02,26.17 -19.39,0 -35.2,-15.81 -35.2,-35.2 0,-19.22 15.55,-34.93 34.71,-35.19 v -17.15 c -28.62,0.27 -51.86,23.67 -51.86,52.34 z" class="st2"/>
	<g id="g52">
		<path style="fill:#003da6" id="path50" d="m 152.99,490.91 c 5.76,0 10.45,-4.69 10.45,-10.45 0,-5.76 -4.69,-10.45 -10.45,-10.45 -5.76,0 -10.45,4.69 -10.45,10.45 0,5.75 4.69,10.45 10.45,10.45 z" class="st2"/>
	</g>
</g>


</svg>
