<svg width="30" height="30" viewBox="0 0 26 21" fill="none" xmlns="http://www.w3.org/2000/svg">
<path d="M24.8877 2.8964C24.3421 3.13833 23.7757 3.3292 23.1946 3.46737C23.8349 2.85887 24.3164 2.09775 24.588 1.24821C24.6656 1.00568 24.4021 0.79596 24.1831 0.925816C23.3747 1.40537 22.5038 1.76512 21.5947 1.9952C21.542 2.00855 21.4875 2.01531 21.4329 2.01531C21.2673 2.01531 21.1063 1.95383 20.9797 1.84223C20.0125 0.989756 18.7685 0.520264 17.4769 0.520264C16.918 0.520264 16.3538 0.607373 15.7997 0.779197C14.0832 1.31161 12.7587 2.72757 12.3431 4.47455C12.1872 5.12982 12.145 5.78568 12.2176 6.42388C12.2259 6.49722 12.1913 6.54841 12.1699 6.57242C12.1323 6.61451 12.0791 6.63863 12.0239 6.63863C12.0177 6.63863 12.0113 6.63833 12.0051 6.63774C8.24757 6.28864 4.85922 4.47838 2.46416 1.54049C2.34203 1.39064 2.10782 1.40902 2.01048 1.57599C1.54146 2.38063 1.29361 3.30094 1.29361 4.23741C1.29361 5.67259 1.8702 7.02509 2.87175 8.01107C2.45057 7.91121 2.04293 7.75393 1.66425 7.54361C1.48106 7.44184 1.25565 7.57265 1.25307 7.78219C1.22685 9.91425 2.47512 11.8114 4.34507 12.6656C4.30741 12.6665 4.26975 12.667 4.23203 12.667C3.93562 12.667 3.6355 12.6383 3.34011 12.5819C3.1338 12.5425 2.96048 12.7382 3.02454 12.9382C3.63149 14.8331 5.26304 16.2299 7.21549 16.547C5.59507 17.6348 3.70806 18.2086 1.74406 18.2086L1.13178 18.2082C0.943133 18.2082 0.783582 18.3312 0.735507 18.5139C0.688151 18.6939 0.77538 18.8837 0.936248 18.9773C3.14936 20.2652 5.67374 20.9459 8.23757 20.9459C10.4818 20.9459 12.581 20.5006 14.4771 19.6223C16.2152 18.8171 17.7512 17.6661 19.0424 16.2013C20.2451 14.8368 21.1857 13.2616 21.8378 11.5195C22.4594 9.85893 22.7879 8.08704 22.7879 6.39539V6.3148C22.7879 6.04318 22.9107 5.7876 23.1251 5.61362C23.9384 4.95326 24.6466 4.17592 25.2301 3.30321C25.3841 3.07278 25.1412 2.78397 24.8877 2.8964Z" fill="#F5F5F5"/>
</svg>
