<svg width="38" height="34" viewBox="0 0 32 33" fill="none" xmlns="http://www.w3.org/2000/svg">
<path fill-rule="evenodd" clip-rule="evenodd" d="M7.76665 8.02026H24.2316C26.5578 8.02026 28.4436 9.90602 28.4436 12.2322V21.0391C28.4436 23.3653 26.5578 25.251 24.2316 25.251H7.76665C5.44045 25.251 3.55469 23.3653 3.55469 21.0391V12.2322C3.55469 9.90602 5.44045 8.02026 7.76665 8.02026ZM13.4069 20.6332L20.8735 16.8041V16.808C20.9375 16.7752 20.9777 16.7094 20.9777 16.6376C20.9777 16.5657 20.9375 16.4999 20.8735 16.4672L13.4069 12.6381C13.3477 12.6075 13.277 12.6098 13.22 12.6441C13.1629 12.6785 13.1279 12.74 13.1273 12.8066V20.4647C13.1279 20.5313 13.1629 20.5928 13.22 20.6272C13.277 20.6615 13.3477 20.6638 13.4069 20.6332Z" fill="#F5F5F5"/>
</svg>
